<svg width="22" height="22" viewBox="0 0 22 22" fill="none" xmlns="http://www.w3.org/2000/svg">
<path d="M10 0V2.03125C5.79566 2.4828 2.4828 5.79566 2.03125 10H0V12H2.03125C2.4828 16.2043 5.79566 19.5172 10 19.9688V22H12V19.9688C16.2043 19.5172 19.5172 16.2043 19.9688 12H22V10H19.9688C19.5172 5.79566 16.2043 2.4828 12 2.03125V0H10ZM11 4C14.9 4 18 7.1 18 11C18 14.9 14.9 18 11 18C7.1 18 4 14.9 4 11C4 7.1 7.1 4 11 4ZM11 7C8.79086 7 7 8.79086 7 11C7 13.2091 8.79086 15 11 15C13.2091 15 15 13.2091 15 11C15 8.79086 13.2091 7 11 7Z" fill="white"/>
</svg>
