<svg width="290" height="256" viewBox="0 0 290 256" fill="none" xmlns="http://www.w3.org/2000/svg">
<path d="M130.2 3.33335C126.333 4.80002 120.6 8.40002 117.4 11.3334L111.4 16.5334L84.8665 9.20002C53.1331 0.666688 50.0665 0.400021 43.5331 6.40002C39.3998 10.1334 38.5998 11.8667 37.9331 17.7333C37.3998 24.4 37.5331 24.8 42.4665 29.7333C47.3998 34.4 49.2665 35.2 75.1331 42L102.733 49.2L104.333 54.5333C109.266 71.4667 123.266 83.2 141.266 85.4667C151.4 86.6667 164.6 82.4 172.733 75.2L179 69.7333L207.266 77.3333C232.6 84.1333 236.066 84.8 240.466 83.4667C248.066 81.2 252.333 75.2 252.333 67.0667C252.333 61.3333 251.8 59.8667 248.066 56.1333C244.333 52.4 240.6 51.0667 222.333 46.1333C187.266 36.8 187 36.6667 187 34.2667C187 30.1333 180.733 18.6667 175.8 13.6C164.2 1.86669 144.866 -2.53331 130.2 3.33335ZM161.533 10.1334C169.533 13.4667 177.666 22.5333 180.333 30.9333C182.066 36.4 184.866 40.1333 188.6 42.1333C189.8 42.8 202.066 46.4 215.933 50C243.133 57.2 247 59.4667 247 67.3333C247 73.0667 241.666 78.5333 236.2 78.5333C233.666 78.5333 219.8 75.3333 205.4 71.3333L179 64.2667L173.533 68.1333C160.6 77.0667 158.6 78.1333 152.333 79.3333C145.666 80.5333 136.6 79.6 129.666 76.9333C122.6 74.1333 114.733 65.6 110.333 56C107.933 50.8 105.133 46 104.2 45.2C103.133 44.4 91.7998 40.9333 78.9998 37.4667C48.4665 29.2 47.1331 28.6667 44.8665 24.4C42.0665 18.9333 42.5998 15.6 46.9998 11.0667C52.0665 6.13335 52.4665 6.13335 84.0665 14.8C96.3331 18.1334 107.933 20.9333 109.8 20.9333C112.066 21.0667 115.666 19.2 119.666 16C132.066 5.73335 146.733 3.73335 161.533 10.1334Z" fill="white"/>
<path d="M138.333 25.2C132.733 27.6 127.267 34.4 126.2 40.2666C125 46.5333 129.4 55.7333 135.267 59.3333C141.8 63.3333 151 62.9333 156.333 58.5333C162.2 53.4666 164.733 48 164.067 41.3333C163.133 34.1333 158.6 28 152.067 25.3333C145.933 22.9333 143.667 22.9333 138.333 25.2ZM154.467 33.2C158.067 36.8 159 38.8 159 43.0666C159 52.6666 150.333 58.9333 140.6 56.4C132.067 54.1333 128.2 41.8666 133.8 34.8C139.667 27.3333 147.933 26.6666 154.467 33.2Z" fill="white"/>
<path d="M57.3999 53.6C56.3333 54.9333 42.9999 75.6 27.7999 99.4667C0.733252 142.267 0.333252 143.067 0.333252 150.133C0.333252 173.6 14.9999 196.4 36.5999 206.667C77.3999 226 123.667 199.333 127.8 154C128.6 145.6 128.467 144.4 124.867 138.4C115 121.467 71.9333 54.4 70.0666 52.9333C66.8666 50.5333 59.7999 50.9333 57.3999 53.6ZM67.2666 58.2667C69.1333 59.8667 117.4 135.2 121.533 143.2C124.6 148.8 122.067 163.467 116.2 175.333C109.933 187.867 101.133 196.4 88.3333 202.533C80.1999 206.4 78.7333 206.667 64.3333 206.667C49.7999 206.667 48.4666 206.4 39.9333 202.4C23.5333 194.533 10.9999 179.333 6.99992 162.267C3.66659 148 4.46659 146.133 28.5999 108C60.0666 58.4 60.0666 58.2667 61.9333 57.6C64.5999 56.5333 64.9999 56.5333 67.2666 58.2667Z" fill="white"/>
<path d="M58.4667 79.8666C53.2667 85.4666 20.0667 138.667 19.4 142.533C19 144.267 19.9333 146.4 21.6667 148C24.4667 150.533 26.7333 150.667 64.3333 150.667C101.533 150.667 104.2 150.533 106.867 148.133C108.467 146.667 109.667 144.533 109.667 143.333C109.667 140.533 71.9333 80.8 68.2 77.6C64.3333 74.4 63.2667 74.6666 58.4667 79.8666ZM66.2 81.6C66.7333 82.8 75.8 97.4666 86.3333 114.133C97 130.8 105.667 144.667 105.667 144.933C105.667 145.067 86.8667 145.333 63.9333 145.333H22.0667L32.7333 128.667C38.6 119.467 47.9333 104.667 53.5333 95.7333C59.1333 86.8 64.0667 79.4666 64.4667 79.3333C65 79.3333 65.8 80.4 66.2 81.6Z" fill="white"/>
<path d="M219.4 96.9333C217.933 98.6667 204.467 119.467 189.667 143.2L162.6 186.4L162.733 194.533C163.667 228.533 191.8 255.467 226.333 255.467C261.267 255.467 289.667 227.867 289.667 193.867V184.8L262.867 142.4C248.067 119.067 234.733 98.6667 233.267 96.9333C231.533 95.0667 229 94 226.333 94C223.667 94 221.133 95.0667 219.4 96.9333ZM230.467 102.267C231.933 104 237 111.333 241.667 118.667C246.2 126 251.4 134.133 253 136.667C254.733 139.2 262.467 151.467 270.333 164L284.6 186.667L283.933 196.667C282.2 227.2 257.667 250 226.333 250C195.533 250 170.333 227.2 168.6 197.733L168.067 187.467L177 173.067C221 102.8 223.267 99.3333 226.333 99.3333C227.133 99.3333 229.133 100.667 230.467 102.267Z" fill="white"/>
<path d="M221.4 121.6C218.2 124.933 204.867 145.6 188.067 173.2C184.6 179.067 181.667 184.8 181.667 186C181.667 187.2 182.867 189.333 184.467 190.8C187.133 193.2 189.933 193.333 224.2 193.6C245.533 193.733 262.866 193.2 265.4 192.4C269.8 191.067 272.066 186.8 270.6 182.667C269 178.8 234.6 125.2 231.267 121.6C229.4 119.6 227.133 118 226.333 118C225.533 118 223.267 119.6 221.4 121.6ZM246.333 153.333C256.466 169.467 265.533 183.6 266.6 184.8C267.533 185.867 268.333 187.067 268.333 187.467C268.333 187.733 249.533 188 226.6 188H184.867L205.533 154.933C216.867 136.8 226.6 122.4 227 122.933C227.533 123.6 236.2 137.2 246.333 153.333Z" fill="white"/>
</svg>
