<svg width="36" height="39" viewBox="0 0 36 39" fill="none" xmlns="http://www.w3.org/2000/svg">
<path d="M17.9512 -6.57566e-06C17.6313 0.0109159 17.3234 0.123838 17.0723 0.322259L2.85938 11.5195C1.05548 12.9412 0 15.1135 0 17.4102V36.5C0 37.8636 1.13641 39 2.5 39H12.5C13.8636 39 15 37.8636 15 36.5V26.5C15 26.2049 15.205 26 15.5 26H20.5C20.795 26 21 26.2049 21 26.5V36.5C21 37.8636 22.1364 39 23.5 39H33.5C34.8636 39 36 37.8636 36 36.5V17.4102C36 15.1135 34.9445 12.9412 33.1406 11.5195L18.9277 0.322259C18.6503 0.103134 18.3045 -0.0109978 17.9512 -6.57566e-06ZM18 3.41015L31.2852 13.8769C32.3693 14.7313 33 16.0308 33 17.4102V36H24V26.5C24 24.585 22.415 23 20.5 23H15.5C13.585 23 12 24.585 12 26.5V36H3V17.4102C3 16.0308 3.63074 14.7313 4.71484 13.8769L18 3.41015Z" fill="white"/>
</svg>
